<?xml version="1.0" encoding="utf-8"?>
<!-- Generator: Adobe Illustrator 17.0.0, SVG Export Plug-In . SVG Version: 6.00 Build 0)  -->
<!DOCTYPE svg PUBLIC "-//W3C//DTD SVG 1.1//EN" "http://www.w3.org/Graphics/SVG/1.1/DTD/svg11.dtd">
<svg version="1.1" id="Layer_1" xmlns="http://www.w3.org/2000/svg" xmlns:xlink="http://www.w3.org/1999/xlink" x="0px" y="0px"
	 width="23px" height="14px" viewBox="0 0 50 37.711" enable-background="new 0 0 50 37.711" xml:space="preserve" fill="#ffffff">
<path d="M50,37.711H0V0h50V37.711L50,37.711z M5.917,34.222h38.167L31.524,21.365l-2.378,2.393
	c-1.029,1.029-2.503,1.618-4.052,1.618c-0.008,0-0.017-0.001-0.026-0.001c-1.555-0.007-3.034-0.608-4.057-1.652l-2.417-2.448
	L5.917,34.222L5.917,34.222z M3.489,5.986v25.73l12.653-12.922L3.489,5.986L3.489,5.986z M33.982,18.89l12.529,12.826V6.275
	L33.982,18.89L33.982,18.89z M5.924,3.49l17.572,17.787c0.381,0.387,0.958,0.609,1.587,0.611c0.004,0,0.007,0,0.01,0
	c0.62,0,1.211-0.219,1.58-0.591L44.361,3.49H5.924L5.924,3.49z"/>
</svg>
