<?xml version="1.0" encoding="utf-8"?>
<!-- Generator: Adobe Illustrator 17.0.0, SVG Export Plug-In . SVG Version: 6.00 Build 0)  -->
<!DOCTYPE svg PUBLIC "-//W3C//DTD SVG 1.1//EN" "http://www.w3.org/Graphics/SVG/1.1/DTD/svg11.dtd">
<svg version="1.1" id="Layer_1" xmlns:sketch="http://www.bohemiancoding.com/sketch/ns"
	 xmlns="http://www.w3.org/2000/svg" xmlns:xlink="http://www.w3.org/1999/xlink" x="0px" y="0px" width="23px"
	 height="23px" viewBox="0 0 36.822 36.822" enable-background="new 0 0 36.822 36.822" xml:space="preserve" fill="#ffffff">
<title></title>
<desc></desc>
<g id="black">
	<g id="slice" transform="translate(-600.000000, 0.000000)">
	</g>
	<g id="linkedin" transform="translate(16.000000, 17.000000)">
		<path d="M-5.655,15.246V-3.053h-5.656v18.299H-5.655z M-5.655-9.539c-0.034-1.638-1.125-2.884-2.898-2.884
			c-1.773,0-2.932,1.247-2.932,2.884c0,1.602,1.125,2.885,2.864,2.885h0.034C-6.78-6.654-5.655-7.937-5.655-9.539z M3.572,15.246
			V4.82c0-0.558,0.04-1.116,0.204-1.514c0.449-1.115,1.47-2.27,3.184-2.27c2.246,0,3.654,1.274,3.654,3.784v10.426h5.694V4.541
			c0-5.734-3.061-8.403-7.144-8.403c-3.348,0-4.817,1.872-5.633,3.146l0.041-2.447h-5.684c0.082,1.752,0,18.409,0,18.409H3.572z"/>
	</g>
</g>
</svg>
