<?xml version="1.0" encoding="UTF-8" standalone="no"?>
<svg width="136px" height="20px" viewBox="0 0 136 20" version="1.1" xmlns="http://www.w3.org/2000/svg" xmlns:xlink="http://www.w3.org/1999/xlink" xmlns:sketch="http://www.bohemiancoding.com/sketch/ns">
    <!-- Generator: Sketch 3.4 (15575) - http://www.bohemiancoding.com/sketch -->
    <title>gizmodo</title>
    <desc>Created with Sketch.</desc>
    <defs></defs>
    <g id="Page-1" stroke="none" stroke-width="1" fill="none" fill-rule="evenodd" sketch:type="MSPage">
        <g id="twindr" sketch:type="MSArtboardGroup" transform="translate(-834.000000, -584.000000)" fill="#FFFFFF">
            <g id="press" sketch:type="MSLayerGroup" transform="translate(780.000000, 580.000000)">
                <g id="gizmodo" transform="translate(54.693976, 4.243902)" sketch:type="MSShapeGroup">
                    <path d="M22.1144402,17.1173561 L22.1144402,2.30726829 C22.1144402,1.53844293 22.2888337,0.96132878 22.6384099,0.576321951 C22.9875915,0.19171122 23.4393575,0 23.9933134,0 C24.5642352,0 25.0266542,0.189730732 25.3805705,0.56998439 C25.7344867,0.950238049 25.9116421,1.52933268 25.9116421,2.30726829 L25.9116421,17.1173561 C25.9116421,17.8948956 25.7344867,18.4763668 25.3805705,18.8593932 C25.0270487,19.2455883 24.5646297,19.4372995 23.9933134,19.4372995 C23.4480377,19.4372995 22.9982445,19.2424195 22.6447227,18.8530556 C22.2908065,18.4652761 22.1144402,17.8857854 22.1144402,17.1173561" id="Shape"></path>
                    <path d="M125.265052,19.4376956 C119.930268,19.4376956 115.590157,15.0806224 115.590157,9.72498732 C115.590157,4.3693522 119.931451,0.0118829268 125.265052,0.0118829268 C130.599837,0.0118829268 134.939947,4.3693522 134.939947,9.72498732 C134.939947,15.0806224 130.601021,19.4376956 125.265052,19.4376956 M125.265052,3.94433951 C122.089275,3.94433951 119.505332,6.53798634 119.505332,9.72577951 C119.505332,12.9131766 122.08967,15.5064273 125.265052,15.5064273 C128.44004,15.5064273 131.023984,12.9131766 131.023984,9.72577951 C131.023984,6.53759024 128.44004,3.94433951 125.265052,3.94433951" id="Shape"></path>
                    <path d="M81.831596,19.4376956 C76.4968113,19.4376956 72.156701,15.0806224 72.156701,9.72498732 C72.156701,4.3693522 76.4968113,0.0118829268 81.831596,0.0118829268 C87.1663806,0.0118829268 91.5064909,4.3693522 91.5064909,9.72498732 C91.5068855,15.0806224 87.1667752,19.4376956 81.831596,19.4376956 M81.831596,3.94433951 C78.656608,3.94433951 76.0726641,6.53798634 76.0726641,9.72577951 C76.0726641,12.9131766 78.656608,15.5064273 81.831596,15.5064273 C85.007373,15.5064273 87.5905278,12.9131766 87.5905278,9.72577951 C87.5905278,6.53759024 85.007373,3.94433951 81.831596,3.94433951" id="Shape"></path>
                    <path d="M112.49053,9.71864976 L112.49053,9.71864976 L112.49053,9.71627317 C112.488951,7.57259317 111.791772,5.58972878 110.617969,3.98157268 C108.908755,1.64222049 106.183955,0.0982321951 103.102082,0.00673365854 C103.0066,0.00435707317 102.911117,0 102.814056,0 L97.9562894,0.00594146341 C97.1261446,0.00594146341 96.5260257,0.195672195 96.154749,0.575133659 C95.7838669,0.954199024 95.5976367,1.56775415 95.5976367,2.41461073 L95.5976367,9.70716293 L95.5976367,9.73053268 L95.5976367,17.0238771 C95.5976367,17.8711298 95.7838669,18.4838927 96.154749,18.8637502 C96.5260257,19.2428156 97.1265392,19.4333385 97.9562894,19.4333385 L102.814056,19.4396761 C102.911117,19.4396761 103.0066,19.4349229 103.102082,19.4317541 C106.183955,19.3410478 108.908755,17.7970595 110.617969,15.4577073 C111.792956,13.8491551 112.488951,11.867479 112.49053,9.72300683 L112.49053,9.71864976 M103.500583,15.4588956 C103.031851,15.488999 102.528793,15.4945444 101.987068,15.4945444 L99.4465254,15.4945444 L99.4465254,9.73092878 L99.4465254,9.70716293 L99.4465254,3.94354732 L101.987068,3.94354732 C102.528793,3.94354732 103.031062,3.94948878 103.500583,3.9795922 C105.179811,4.18120585 106.638483,5.10965854 107.55543,6.44371512 C108.192242,7.3733561 108.568254,8.49668878 108.571805,9.70755902 L108.571805,9.71706537 L108.571805,9.71864976 L108.571805,9.72142244 L108.571805,9.73013659 C108.568254,10.9425912 108.192242,12.0655278 107.55543,12.9939805 C106.638483,14.3292254 105.179811,15.2568859 103.500583,15.4588956" id="Shape"></path>
                    <path d="M66.6771145,0.0867453659 C65.970071,-0.134277073 65.2062116,0.144971707 64.7946903,0.774370732 L58.9603984,9.6956761 L53.1276847,0.774370732 C52.7153742,0.144971707 51.9515148,-0.134277073 51.2448659,0.0867453659 C50.5378225,0.307371707 50.0552811,0.976380488 50.0552811,1.73451122 L50.0552811,17.5895044 C50.0552811,18.5405346 50.8065148,19.3125288 51.7337202,19.3125288 C52.6613201,19.3125288 53.4121592,18.542119 53.4121592,17.5895044 L53.4121592,7.39316098 L57.5538081,13.7259688 L57.5620937,13.73904 L57.5676175,13.746962 L57.5837943,13.7703317 C57.6090458,13.8087532 57.6362702,13.8451941 57.6654673,13.8824273 L57.7049228,13.9263941 C57.7285962,13.9529327 57.7506913,13.9814517 57.7755483,14.0052176 C57.7980379,14.0293795 57.8217112,14.0487883 57.8457791,14.0709698 L57.8966768,14.1181054 C57.9298194,14.14504 57.9637512,14.1707863 57.9984721,14.1945522 L58.0268801,14.2171298 L58.0312202,14.2202985 C58.0683084,14.2448566 58.1061857,14.2678302 58.1452467,14.2908039 L58.1772057,14.3110049 C58.2064028,14.3272449 58.2363891,14.3387317 58.2675589,14.3533873 C58.4376124,14.4326068 58.6155569,14.4825151 58.7942905,14.5011317 L58.7982361,14.5019239 C58.8337461,14.5050927 58.869256,14.5058849 58.9043715,14.5082615 L58.9623711,14.510638 L59.0207654,14.5082615 C59.0562753,14.5058849 59.0917853,14.5050927 59.1272953,14.5019239 L59.1312409,14.5011317 C59.3107636,14.4825151 59.487919,14.4326068 59.658367,14.3533873 C59.6883532,14.3387317 59.7183394,14.3272449 59.7479311,14.3110049 L59.7802847,14.2908039 C59.8193456,14.2678302 59.857223,14.2468371 59.8943112,14.2202985 L59.8994404,14.2171298 L59.9270593,14.1945522 C59.9617802,14.1699941 59.9957119,14.14504 60.0288546,14.1181054 L60.0813305,14.0701776 C60.1046093,14.0487883 60.1274935,14.0289834 60.149194,14.0060098 C60.1744456,13.9814517 60.1969352,13.9529327 60.2206086,13.9263941 L60.2608532,13.8824273 C60.2892612,13.8451941 60.3164856,13.807961 60.3425262,13.7703317 L60.358703,13.746962 L60.3634377,13.73904 L60.3717233,13.7259688 L64.5098212,7.39316098 L64.5098212,17.5895044 C64.5098212,18.5405346 65.2610548,19.3125288 66.1886548,19.3125288 C67.1158602,19.3125288 67.8678829,18.542119 67.8678829,17.5895044 L67.8678829,1.73451122 C67.8674884,0.976380488 67.3841579,0.307371707 66.6771145,0.0867453659" id="Shape"></path>
                    <path d="M44.3433014,19.041598 L31.7976208,19.041598 C31.1371349,19.041598 30.4040508,18.6276761 30.1322021,17.9824332 C29.8607479,17.3375863 29.8051156,16.4598341 30.3890577,15.7623063 L40.6522349,3.80728976 L32.1732376,3.80728976 C31.2464268,3.80728976 30.4947986,3.00123122 30.4947986,2.00702634 C30.4947986,1.01282146 31.2464268,0.405207805 32.1732376,0.405207805 L43.6070609,0.405207805 C44.2671522,0.405207805 44.9505223,0.510569756 45.5470902,1.16729951 C46.093155,1.76738732 46.0686926,3.06223024 45.4579207,3.83422439 L35.5411632,15.4418634 L44.3440906,15.4418634 C45.2712959,15.4418634 45.9459858,16.2475259 45.9459858,17.2421268 C45.9455913,18.2363317 45.2705068,19.041598 44.3433014,19.041598" id="Shape"></path>
                    <path d="M9.60545319,19.4376956 C6.82107516,19.4376956 4.29631464,18.3290185 2.49556342,16.3176351 C0.909450385,14.5450985 0,12.2089151 0,9.90877659 C0,2.69029463 5.97712099,0 9.74512584,0 C13.4496072,0 16.1688836,1.82363317 16.2829102,1.90126829 C17.117395,2.46966829 17.3403189,3.61795512 16.7816283,4.4667922 C16.2241214,5.31246049 15.1000328,5.54061268 14.2663371,4.97894634 C14.2178068,4.94725854 12.288825,3.69875902 9.74512584,3.69875902 C7.38331672,3.69875902 4.12665578,5.26294829 4.12665578,9.90956878 C4.12665578,12.5531239 6.08483463,15.6700156 9.67568407,15.6700156 C11.6958081,15.6700156 13.1162079,15.1301346 13.9416179,14.6025327 L13.9416179,11.8544078 L11.143825,11.8544078 C10.1392868,11.8544078 9.32571336,11.0265639 9.32571336,10.0054244 C9.32571336,8.98428488 10.1392868,8.15644098 11.143825,8.15644098 L15.7601241,8.15644098 C16.7642678,8.15644098 17.5782358,8.98428488 17.5782358,10.0054244 L17.5782358,15.5048429 C17.5782358,16.0059063 17.3793798,16.4836 17.0266472,16.832958 C15.8078654,18.0327376 13.1327792,19.4376956 9.60545319,19.4376956" id="Shape"></path>
                </g>
            </g>
        </g>
    </g>
</svg>