<?xml version="1.0" encoding="UTF-8" standalone="no"?>
<svg width="77px" height="23px" viewBox="0 0 77 23" version="1.1" xmlns="http://www.w3.org/2000/svg" xmlns:xlink="http://www.w3.org/1999/xlink" xmlns:sketch="http://www.bohemiancoding.com/sketch/ns">
    <!-- Generator: Sketch 3.4 (15575) - http://www.bohemiancoding.com/sketch -->
    <title>lifehacker</title>
    <desc>Created with Sketch.</desc>
    <defs></defs>
    <g id="Page-1" stroke="none" stroke-width="1" fill="none" fill-rule="evenodd" sketch:type="MSPage">
        <g id="twindr" sketch:type="MSArtboardGroup" transform="translate(-994.000000, -583.000000)" fill="#FFFFFF">
            <g id="press" sketch:type="MSLayerGroup" transform="translate(780.000000, 580.000000)">
                <g id="lifehacker" transform="translate(214.568675, 3.536585)" sketch:type="MSShapeGroup">
                    <path d="M6.11420249,1.28908097 C7.1277732,1.28908097 7.97149312,2.1407338 7.97149312,3.1638344 C7.97149312,4.18736469 7.1277732,5.03901751 6.11420249,5.03901751 C5.10063178,5.03901751 4.25691185,4.18736469 4.25691185,3.1638344 C4.25691185,2.1407338 5.10063178,1.28908097 6.11420249,1.28908097" id="Fill-1"></path>
                    <path d="M3.04539474,0.173491363 C3.18204161,0.181655543 3.28718733,0.295954055 3.28718733,0.432166945 L3.28761302,18.2807821 C3.28761302,18.4242997 3.17225071,18.5407467 3.03049554,18.5407467 L0.257117476,18.5407467 C0.11493662,18.5407467 0,18.4242997 0,18.2807821 L0,0.259859788 C0,0.103021603 0.138349635,-0.0172926206 0.290321388,0.00204359397 C1.20853727,0.0591928503 2.12717885,0.116342107 3.04539474,0.173491363" id="Fill-3"></path>
                    <path d="M4.54723323,5.15847235 L7.35849782,5.33335767 C7.49514469,5.34152185 7.60029041,5.45582036 7.60029041,5.59203325 L7.6007161,5.59203325 L7.6007161,18.259832 C7.6007161,18.4033496 7.48577948,18.5197966 7.34359863,18.5197966 L4.51402932,18.5197966 C4.37184847,18.5197966 4.25691185,18.4033496 4.25691185,18.259832 L4.25691185,5.41628855 C4.25691185,5.27277086 4.37184847,5.15632388 4.51402932,5.15632388 C4.52552298,5.15632388 4.53659096,5.15718327 4.54723323,5.15847235" id="Fill-5"></path>
                    <path d="M9.36520606,4.34942176 C9.36520606,3.07194251 9.95223421,1.80993224 10.9087623,0.977615629 C11.9138192,0.103618731 13.2747539,-0.204901315 14.5560844,0.135416062 L14.8949346,0.225222036 C15.0175336,0.257878754 15.0958608,0.374325735 15.0856442,0.497647814 L14.9851811,3.26745313 C14.9804985,3.40710357 14.8664132,3.51710514 14.728915,3.51710514 L13.433111,3.51796453 C12.8826923,3.51796453 12.6532448,3.99277602 12.6532448,4.49122066 L12.6532448,7.90513677 L14.5118125,7.90513677 C14.6539933,7.90513677 14.7693557,8.02158375 14.7693557,8.16510143 L14.7693557,11.0169782 C14.7693557,11.1604959 14.6539933,11.2769429 14.5118125,11.2769429 L12.6532448,11.2769429 L12.6532448,21.2724767 C12.6532448,21.4159944 12.5378825,21.5324414 12.3957016,21.5324414 L9.63679704,21.6922874 C9.49035927,21.7004516 9.36563175,21.5809968 9.36563175,21.4336119 L9.36520606,4.34942176 Z" id="Fill-7"></path>
                    <path d="M19.8546625,8.51180165 C19.4127951,8.51180165 19.0386125,8.88950237 19.0386125,9.33552439 L19.0386125,10.3891332 L20.6707125,10.3891332 L20.6707125,9.33552439 C20.6707125,8.88950237 20.29653,8.51180165 19.8546625,8.51180165 L19.8546625,8.51180165 Z M15.7505738,9.38837671 C15.7505738,8.85426749 15.8604022,8.28363432 16.0809102,7.74007184 C16.7296636,6.14075205 18.1948926,5.15632388 19.903617,5.15632388 C21.4939993,5.15632388 22.8940976,6.0629775 23.5709466,7.51577175 C23.8106107,8.02968537 23.9298043,8.55348193 23.9298043,8.9964961 L23.9298043,12.0632197 C23.9298043,12.5771333 23.7361148,12.9900689 23.4211033,13.2814012 C23.0907669,13.5864837 22.6310205,13.7506267 22.1278535,13.7506267 L19.0386125,13.7506267 L19.0386125,14.5257941 C19.0386125,15.0470125 19.3438331,15.5239724 19.8997858,15.5239724 L22.5343886,15.5239724 C22.6808263,15.5239724 22.7983171,15.649443 22.7910803,15.7968279 L22.8677048,18.2065499 C22.8719617,18.3393253 22.7757555,18.451905 22.6484738,18.4708115 L19.9082996,18.875583 C19.7648417,18.8940598 19.6218095,18.9082397 19.4766488,18.9082397 C18.5601357,18.9082397 17.6955569,18.478546 17.0497833,17.8391619 C16.2328819,17.0300487 15.7505738,15.883626 15.7505738,14.7277501 L15.7505738,9.38837671 Z" id="Fill-9"></path>
                    <path d="M27.8240272,5.3991008 C28.306761,5.28523198 28.8039683,5.22808272 29.2998986,5.22808272 C30.4054186,5.22808272 31.4109011,5.64445588 32.1494753,6.48364759 C32.8241959,7.25065077 33.1047264,8.27718891 33.1047264,9.2873987 L33.1047264,18.1790495 C33.1047264,18.3225672 32.989364,18.4390142 32.8471832,18.4390142 L31.0792877,18.4390142 C30.9375325,18.4390142 30.8221702,18.3225672 30.8221702,18.1790495 L30.8221702,9.24915597 C30.8221702,8.2780483 30.1632003,7.74093123 29.2347678,7.74093123 L27.8240272,7.74093123 L27.8240272,18.1773308 C27.8240272,18.3208485 27.7086649,18.4372954 27.566484,18.4372954 C26.9773274,18.4372954 26.3881708,18.4360064 25.7990142,18.4360064 C25.6572591,18.4360064 25.5427482,18.3199891 25.5427482,18.1773308 L25.5414711,0.259534969 C25.5414711,0.116017287 25.6568334,0 25.7990142,0 L27.566484,0 C27.7086649,0 27.8240272,0.116017287 27.8240272,0.259534969 L27.8240272,5.3991008 Z" id="Fill-11"></path>
                    <path d="M55.068263,18.1777605 C55.068263,18.3212781 54.9529007,18.4377251 54.8107199,18.4377251 C54.2215633,18.4377251 53.6324067,18.436436 53.0432501,18.436436 C52.9014949,18.436436 52.786984,18.3204188 52.786984,18.1777605 L52.7857069,0.259964662 C52.7857069,0.116446981 52.9010692,0 53.0432501,0 L54.8107199,0 C54.9529007,0 55.068263,0.116446981 55.068263,0.259964662 L55.068263,10.714841 L58.157504,5.54218879 C58.2056071,5.46140638 58.2903196,5.41671824 58.3775863,5.41628855 L60.438783,5.41628855 C60.646946,5.41628855 60.7703965,5.63500262 60.6520543,5.82148966 L57.3150611,11.5175088 L60.9372674,18.0484227 C61.034325,18.2228783 60.9023607,18.4347173 60.7129281,18.4347173 L58.7223962,18.435147 C58.6185275,18.435147 58.5287067,18.3724117 58.488266,18.2830354 L55.068263,12.274629 L55.068263,18.1777605 Z" id="Fill-13"></path>
                    <path d="M76.1323142,5.94676598 C76.2429939,5.98715718 76.3089761,6.09629937 76.3008879,6.2093088 L76.2378857,7.68057989 C76.231926,7.81980063 76.1178407,7.92851313 75.9811939,7.92851313 C75.9811939,7.92894282 74.4223127,7.92808343 74.2967338,7.92851313 C74.1613641,7.92894282 74.0242915,7.92980221 73.8897731,7.95128689 C73.4909004,8.01574094 73.1511989,8.22414236 72.9106834,8.52149037 C72.6650595,8.82485409 72.5211759,9.22189103 72.5211759,9.65459255 L72.5211759,18.535501 C72.5211759,18.6790187 72.4062393,18.7954657 72.2640584,18.7954657 L70.496163,18.7954657 C70.3539821,18.7954657 70.2390455,18.6790187 70.2390455,18.535501 L70.2390455,9.57552891 C70.2390455,8.63364042 70.560868,7.74245577 71.1138409,7.04033634 C72.3734611,5.44101655 74.3716555,5.30050672 76.1323142,5.94676598" id="Fill-15"></path>
                    <path d="M65.0864794,7.94804357 C64.2704294,7.94804357 63.5820867,8.64285822 63.5820867,9.46658096 L63.5820867,11.1260579 L66.590872,11.1260579 L66.590872,9.46658096 C66.590872,8.64672546 65.8982725,7.94804357 65.0864794,7.94804357 L65.0864794,7.94804357 Z M67.3873402,16.6471917 C67.5231357,16.6471917 67.6342411,16.7537557 67.6427549,16.8886795 L67.7376841,18.3040904 C67.7466236,18.4403033 67.6499917,18.5588987 67.5184531,18.578235 L65.1771516,18.9237087 C65.0136862,18.9482012 64.8480923,18.9615217 64.6829241,18.9615217 C63.8013177,18.9615217 62.9831392,18.5868288 62.3778064,17.9444368 C61.6818013,17.2053637 61.2995306,16.1779662 61.2995306,15.1621704 L61.2995306,9.3075943 C61.2995306,7.34862092 63.0354992,5.58601754 64.9783538,5.58601754 C67.0357193,5.58601754 68.8734282,7.18877488 68.8734282,9.32306327 L68.8734282,12.2226361 C68.8734282,12.9458105 68.3643015,13.4481224 67.6504174,13.4481224 L63.5820867,13.4455442 L63.5820867,14.7960714 C63.5820867,15.3490871 63.7259703,15.8397973 64.0167174,16.175388 C64.2725578,16.4705876 64.651423,16.6506292 65.1567184,16.6506292 L67.3873402,16.6471917 Z" id="Fill-17"></path>
                    <path d="M47.6276068,5.58601754 C49.575144,5.58601754 51.4064675,7.22272068 51.4073188,9.23583546 L51.4077445,9.66638851 C51.4077445,9.80732803 51.2957878,9.92162654 51.1570124,9.92506409 L49.3682581,9.971471 C49.2273543,9.97490855 49.1098635,9.86232881 49.1060323,9.72010021 L49.0928359,9.27923452 C49.0706999,8.52426277 48.3461735,7.94804357 47.6276068,7.94804357 C46.8183679,7.94804357 46.1287482,8.64457699 46.1287482,9.46142463 L46.1287482,15.1058805 C46.1287482,15.9691351 46.7906979,16.6463323 47.64804,16.6463323 C48.1971816,16.6463323 48.9817305,16.2067557 49.0562264,15.6030361 L49.1073094,15.1931083 C49.124337,15.0508797 49.2524701,14.949472 49.3933739,14.9666598 L51.1855337,15.0637705 C51.3268632,15.0706456 51.4358402,15.1926786 51.4286034,15.3357666 C51.4205153,15.4977611 51.3856086,15.6674901 51.364324,15.8286252 C51.125937,17.6277526 49.3895426,18.9958972 47.6276068,18.9958972 C45.59408,18.9958972 43.846192,17.3196622 43.846192,15.2472497 L43.846192,9.40298629 C43.846192,7.29834676 45.5425714,5.58601754 47.6276068,5.58601754" id="Fill-19"></path>
                    <path d="M39.7697732,12.2385378 L38.4382112,12.2385378 C37.9163138,12.2385378 37.5016906,12.4104153 37.218606,12.7064742 C36.9240277,13.0145646 36.7635421,13.4635945 36.7635421,14.0007115 C36.7635421,14.2980595 36.7541769,14.5984154 36.7639678,14.894904 C36.7954689,15.7555804 37.3280086,16.5930534 38.2568668,16.5930534 C38.2917734,16.5930534 38.313058,16.5930534 38.3190177,16.5926237 C39.1520953,16.5608263 39.7723274,15.8917933 39.7723274,15.0556095 L39.7697732,12.2385378 Z M37.1236768,5.67539693 C38.5718782,5.3999633 40.0690341,5.74715577 41.068557,6.91162558 C41.6849579,7.62964368 42.0391329,8.5766885 42.0412614,9.59377339 L42.0519037,14.9872882 C42.0561606,17.1589599 40.5509166,18.8416403 38.3956421,18.9086725 C36.3621153,18.9722671 34.480986,17.282282 34.480986,15.1952599 L34.480986,13.9547343 C34.480986,12.8289369 34.8764531,11.907244 35.5452139,11.2588363 C36.2314281,10.5932408 37.2007269,10.2228449 38.3194434,10.2228449 C38.8038799,10.2228449 39.2883165,10.2666737 39.7663677,10.3440185 L39.7642393,9.18040809 C39.7642393,8.80528553 39.6595192,8.41340491 39.3823943,8.14656515 C39.094627,7.86941274 38.6906461,7.79163819 38.3070983,7.81613073 L35.8989633,7.97339861 C35.7576338,7.98242217 35.6354605,7.87370968 35.6265209,7.73062169 L35.5511736,6.34271118 C35.5447882,6.2262642 35.6158787,6.12356741 35.7193216,6.08532468 C35.6997398,6.02602695 37.0168283,5.69559253 37.1236768,5.67539693 L37.1236768,5.67539693 Z" id="Fill-21"></path>
                    <path d="M6.29171571,1.71877463 C7.17417354,1.71877463 7.90082839,2.4522617 7.90082839,3.34301665 C7.90082839,4.2337716 7.17417354,4.96725867 6.29171571,4.96725867 C5.40925788,4.96725867 4.68260303,4.2337716 4.68260303,3.34301665 C4.68260303,2.4522617 5.40925788,1.71877463 6.29171571,1.71877463" id="Fill-23"></path>
                    <path d="M2.77295238,0.602000813 L2.77295238,18.4506159 L0,18.4506159 L0,0.429693657 C0.924175562,0.486842913 1.84877682,0.544421863 2.77295238,0.602000813" id="Fill-25"></path>
                    <path d="M4.68260303,5.58601754 L7.51217234,5.76219194 L7.51217234,18.4299906 L4.68260303,18.4299906 L4.68260303,5.58601754 Z" id="Fill-27"></path>
                    <path d="M9.36520606,4.09257191 C9.36520606,2.89157813 9.9186046,1.70046732 10.8193672,0.916706087 C11.7724897,0.0878270229 13.0299815,-0.190614467 14.2334105,0.129077614 L14.5722606,0.218883588 C14.538631,1.14659219 14.5050014,2.07387111 14.4713718,3.00157971 L13.1755679,3.00157971 C12.465515,3.00157971 12.1381584,3.58080676 12.1381584,4.23437081 L12.1381584,7.90825158 L14.254695,7.90825158 L14.254695,10.7601284 L12.1381584,10.7601284 L12.1381584,21.0156269 L9.36520606,21.176762 L9.36520606,4.09257191 Z" id="Fill-29"></path>
                    <path d="M19.5971194,7.99187233 C19.0109426,7.99187233 18.5235262,8.48387156 18.5235262,9.07555973 L18.5235262,10.3887035 L20.6707125,10.3887035 L20.6707125,9.07555973 C20.6707125,8.48387156 20.1832961,7.99187233 19.5971194,7.99187233 L19.5971194,7.99187233 Z M15.7505738,9.12798235 C15.7505738,8.15730438 16.1345473,7.06072617 16.911008,6.26794137 C17.5580586,5.60750222 18.468612,5.15632388 19.6460739,5.15632388 C20.7383974,5.15632388 21.5940367,5.57355642 22.212566,6.15622102 C23.0158453,6.91334125 23.4151436,7.96222346 23.4151436,8.73610174 L23.4151436,11.8028254 C23.4151436,12.7081899 22.7208413,13.2306974 21.8703103,13.2306974 L18.5235262,13.2306974 L18.5235262,14.2653997 C18.5235262,14.928417 18.9347439,15.5235427 19.6422426,15.5235427 L22.2768454,15.5235427 C22.3023869,16.333945 22.3279283,17.1439175 22.3538955,17.9543198 L19.6137213,18.3586615 C19.4792029,18.3784274 19.3476643,18.3883104 19.2191056,18.3883104 C18.3898592,18.3883104 17.5929653,18.0088909 16.9723075,17.3939992 C16.2022322,16.6317227 15.7505738,15.5549104 15.7505738,14.4677854 L15.7505738,9.12798235 Z" id="Fill-31"></path>
                    <path d="M27.3093666,5.90527993 C27.8682991,5.73984787 28.4608612,5.65820607 29.0427811,5.65820607 C30.0950897,5.65820607 30.9962779,6.02516446 31.7003711,6.82525405 C32.3359281,7.54799878 32.5900657,8.50707502 32.5900657,9.45755739 L32.5900657,18.3492082 L30.8221702,18.3492082 L30.8221702,9.41931465 C30.8221702,8.92258879 30.6629617,8.44691791 30.3241115,8.11906165 C30.0295332,7.83374506 29.5868144,7.65112526 28.9776503,7.65112526 L27.3093666,7.65112526 L27.3093666,18.3474895 L25.5414711,18.3474895 L25.5414711,0.429693657 L27.3093666,0.429693657 L27.3093666,5.90527993 Z" id="Fill-33"></path>
                    <path d="M58.5457343,5.84555251 L60.606931,5.84555251 L57.1869281,11.6833705 L60.8810762,18.3449113 L58.8905442,18.3449113 L55.3428338,12.1113454 C55.0818852,11.6528623 55.0984871,11.6184868 55.368801,11.1655897 L58.5457343,5.84555251 Z M54.9792936,18.3474895 C54.3897113,18.3474895 53.8005547,18.3474895 53.2113981,18.3470598 L53.2113981,0.429693657 L54.9792936,0.429693657 L54.9792936,18.3474895 Z" id="Fill-35"></path>
                    <path d="M73.5573083,5.66919392 C74.4848894,5.474113 75.3601104,5.6434123 76.2131956,5.95665898 C76.191911,6.4495176 76.1710521,6.94280592 76.1497676,7.43566455 L75.7304618,7.43566455 C75.6457492,7.43566455 74.803732,7.43480516 74.4653076,7.43609424 C74.3154643,7.43652393 74.1664723,7.43824271 74.0179061,7.46187586 C73.0860681,7.61226864 72.4322065,8.43899923 72.4322065,9.42084924 L72.4322065,18.3017577 L70.6647367,18.3017577 L70.6647367,9.34178561 C70.6647367,7.59121365 71.8515637,6.02798813 73.5573083,5.66919392" id="Fill-37"></path>
                    <path d="M64.8289362,7.42854394 C63.8668741,7.42854394 63.0674261,8.23550863 63.0674261,9.20661629 L63.0674261,11.1260579 L66.5904463,11.1260579 L66.5904463,9.20661629 C66.5904463,8.24023526 65.7863157,7.42854394 64.8289362,7.42854394 M64.8991753,16.6506292 L67.1297971,16.6463323 C67.1608725,17.1181359 67.1923737,17.5899395 67.2238748,18.0617432 L64.8821476,18.4072169 C64.7237905,18.43085 64.571393,18.4420221 64.425381,18.4420221 C63.5625049,18.4420221 62.8405327,18.0729152 62.3062902,17.5057196 C61.6562598,16.8160613 61.2995306,15.8501099 61.2995306,14.9026354 L61.2995306,9.04762964 C61.2995306,7.23002547 62.9180085,5.58601754 64.7208106,5.58601754 C66.6411036,5.58601754 68.3583418,7.04826505 68.3583418,9.06352831 L68.3583418,11.9631011 C68.3583418,12.5582268 67.9769225,12.9286227 67.3928742,12.9286227 L63.0674261,12.926904 L63.0674261,14.5361067 C63.0674261,15.7087407 63.6697791,16.6506292 64.8991753,16.6506292" id="Fill-39"></path>
                    <path d="M47.3704893,5.58601754 C49.180954,5.58601754 50.8926582,7.10197676 50.8939353,8.97630049 L50.8939353,9.40642384 C50.2979676,9.42189282 49.7015743,9.43736179 49.1051809,9.45283076 L49.0924102,9.01239476 C49.0655916,8.11605379 48.2295342,7.42854394 47.3704893,7.42854394 C46.4160897,7.42854394 45.6140875,8.23808679 45.6140875,9.20145997 L45.6140875,14.8459158 C45.6140875,15.8617117 46.3841629,16.6463323 47.3909225,16.6463323 C48.0609604,16.6463323 48.9642771,16.1014807 49.0545237,15.374439 L49.1056066,14.964941 C49.708811,14.997168 50.3120154,15.0298247 50.9152198,15.0624814 L50.8526432,15.5355742 C50.6317095,17.2062231 49.0004609,18.4763976 47.3704893,18.4763976 L47.3704893,18.4746788 C45.4646699,18.4746788 43.846192,16.9333676 43.846192,14.9877148 L43.846192,9.14345133 C43.846192,7.16643081 45.4106071,5.58601754 47.3704893,5.58601754" id="Fill-41"></path>
                    <path d="M39.7684962,11.7250735 L38.180668,11.7250735 C36.9734078,11.7250735 36.2488815,12.5530931 36.2488815,13.7472118 L36.2488815,14.556325 C36.2488815,15.6232543 36.9112569,16.6411986 38.070414,16.5977995 C39.0384358,16.5604162 39.7723274,15.7882567 39.7723274,14.80168 L39.7684962,11.7250735 Z M35.5503222,6.07503156 C36.4515105,5.7407299 37.3573813,5.49924206 38.3305113,5.61568904 C40.2439932,5.84471576 41.5240466,7.46466085 41.5274521,9.33984397 L41.5385201,14.9387523 C41.5385201,16.9041711 39.8421407,18.4450526 37.9358956,18.3969269 C36.1194713,18.3496606 34.480986,16.8242481 34.480986,14.9417602 L34.480986,13.7008049 C34.480986,11.5647977 35.9913383,10.2288801 38.0623259,10.2288801 C38.6344549,10.2288801 39.2044553,10.290756 39.765942,10.3986091 L39.7633879,8.92690836 C39.7621108,7.90552654 39.1133574,7.23391535 38.0333789,7.30352573 L35.6256696,7.46079361 C35.6005538,6.99887292 35.575438,6.53695224 35.5503222,6.07503156 L35.5503222,6.07503156 Z" id="Fill-43"></path>
                    <path d="M0.425691185,0.859387314 L2.32044265,0.977123376 L2.32044265,17.9667809 L0.425691185,17.9667809 L0.425691185,0.859387314 Z" id="Fill-45"></path>
                    <path d="M5.10829422,6.0157112 L7.00304568,6.13344726 L7.00304568,17.9517416 L5.10829422,17.9517416 L5.10829422,6.0157112 Z" id="Fill-47"></path>
                    <path d="M6.28362758,2.14846828 C6.93280663,2.14846828 7.45896094,2.67999934 7.45896094,3.33485247 C7.45896094,3.9901353 6.93280663,4.52166635 6.28362758,4.52166635 C5.63444852,4.52166635 5.10829422,3.9901353 5.10829422,3.33485247 C5.10829422,2.67999934 5.63444852,2.14846828 6.28362758,2.14846828" id="Fill-49"></path>
                    <path d="M9.79089725,4.08458007 C9.79089725,1.98638594 11.6856487,-0.0950501294 14.1086829,0.548630969 L14.0363154,2.55014402 L13.1623714,2.55014402 C12.4178375,2.55014402 11.6856487,3.06019039 11.6856487,4.22637898 L11.6856487,8.34327391 L13.8021853,8.34327391 L13.8021853,10.3091224 L11.6856487,10.3091224 L11.6856487,20.5904025 L9.79089725,20.7004041 L9.79089725,4.08458007 Z" id="Fill-51"></path>
                    <path d="M19.583923,7.53510797 L19.583923,7.53510797 C20.4157235,7.53510797 21.0964037,8.22218813 21.0964037,9.06180953 L21.0964037,10.8183972 L18.0714422,10.8183972 L18.0714422,9.06180953 C18.0714422,8.22218813 18.7521224,7.53510797 19.583923,7.53510797 L19.583923,7.53510797 Z M16.176265,9.11466185 C16.176265,7.53510797 17.3128605,5.58601754 19.6328774,5.58601754 C21.8622222,5.58601754 22.9626339,7.53510797 22.9626339,8.72278124 L22.9626339,11.7895049 C22.9626339,12.3691616 22.5905798,12.773933 21.8571139,12.773933 L18.0714422,12.773933 L18.0714422,14.2520792 C18.0714422,15.4436197 18.9547514,15.9532364 19.6290462,15.9532364 L21.8396605,15.9532364 L21.8907435,17.559861 L19.5370969,17.9070535 C17.8505084,18.1562758 16.176265,16.4529701 16.176265,14.4540352 L16.176265,9.11466185 Z" id="Fill-53"></path>
                    <path d="M26.8568568,6.52962481 C27.472832,6.22926894 28.3280456,6.08747004 29.029159,6.08747004 C29.9971807,6.08747004 30.7238356,6.38223989 31.3589668,7.10412523 C31.842552,7.65327372 32.137556,8.42973016 32.137556,9.44380719 L32.137556,17.8924439 L31.2478614,17.8924439 L31.2478614,9.40556446 C31.2478614,8.26558718 30.5420654,7.1943609 28.9644539,7.1943609 L26.8568568,7.1943609 L26.8568568,17.8924439 L25.9671623,17.8924439 L25.9671623,0.859387314 L26.8568568,0.859387314 L26.8568568,6.52962481 Z" id="Fill-55"></path>
                    <path d="M54.5267838,17.8924439 L53.6370893,17.8924439 L53.6370893,0.859387314 L54.5267838,0.859387314 L54.5267838,17.8924439 Z M58.78327,6.27094923 L59.8266391,6.27094923 L56.6671591,11.6640343 L60.1212174,17.8924439 L59.1340395,17.8924439 L55.7706535,11.9832967 C55.5778154,11.6446981 55.5927146,11.6133305 55.7927894,11.2781694 L58.78327,6.27094923 Z" id="Fill-57"></path>
                    <path d="M75.7483408,6.25469993 C74.4721186,5.79664649 72.9115347,5.96293793 71.9605406,7.05135197 C71.4773811,7.60050046 71.0904278,8.31851856 71.0904278,9.3321659 L71.0904278,17.8491239 L71.9796967,17.8491239 L71.9796967,9.41122953 C71.9796967,8.29101817 72.7727594,6.98474945 74.311633,6.98474945 L75.7168396,6.98474945 L75.7483408,6.25469993 Z" id="Fill-59"></path>
                    <path d="M64.8157398,6.97177958 C66.0208715,6.97177958 67.0165632,7.97683305 67.0165632,9.19329579 L67.0165632,11.5557515 L62.6149164,11.5557515 L62.6149164,9.19329579 C62.6149164,7.97124703 63.6054997,6.97177958 64.8157398,6.97177958 L64.8157398,6.97177958 Z M66.70666,17.0760259 L64.8570318,17.0760259 C63.6948949,17.0760259 62.6149164,16.2454281 62.6149164,14.5227862 L62.6149164,12.4718584 L67.3796778,12.4718584 C67.7223592,12.4718584 67.9062578,12.3261922 67.9062578,11.9493509 L67.9062578,9.04977811 C67.9062578,7.82901843 66.9467499,6.0157112 64.7076142,6.0157112 C63.1436248,6.0157112 61.7252218,7.45991158 61.7252218,9.03430914 L61.7252218,14.8888852 C61.7252218,16.5255884 62.9401444,18.2310425 64.8055232,17.9560385 L66.7462493,17.6694329 L66.70666,17.0760259 Z" id="Fill-61"></path>
                    <path d="M47.3568672,6.0157112 C48.8948895,6.0157112 50.4418512,7.29404983 50.4427026,8.9625503 L49.5159729,8.98661314 C49.4819176,7.84319832 48.4453596,6.97177958 47.3568672,6.97177958 C46.1547153,6.97177958 45.1615778,7.97468458 45.1615778,9.18813947 L45.1615778,14.8325953 C45.1615778,16.0512066 46.0683,17.0760259 47.3773004,17.0760259 C48.3802288,17.0760259 49.3733664,16.2488656 49.4768093,15.4148302 L50.4052418,15.4651044 C50.2315598,16.774381 48.914897,18.0196332 47.3568672,18.0196332 C45.6677246,18.0196332 44.2718832,16.678989 44.2718832,14.9739646 L44.2718832,9.12970113 C44.2718832,7.34174582 45.6600622,6.0157112 47.3568672,6.0157112" id="Fill-63"></path>
                    <path d="M40.1916332,11.2690755 L40.1980186,14.7843993 C40.2005727,16.0030105 39.2912963,17.0278299 37.982296,17.0278299 C36.9793675,17.0278299 35.7963717,16.2788738 35.7963717,14.5437708 L35.7963717,13.7346577 C35.7963717,12.1907684 36.7656705,11.2690755 38.1674716,11.2690755 L40.1916332,11.2690755 Z M35.9921897,6.36498176 L36.0253936,6.97772492 C36.9640426,6.91670842 37.2467016,6.89823159 37.9925125,6.84924652 C39.3913338,6.75815146 40.1852478,7.73570453 40.1873763,8.91392454 L40.1907818,10.9343441 C39.5113787,10.7714902 38.8328269,10.6593402 38.0487038,10.6593402 C36.2258941,10.6593402 34.9066771,11.7077927 34.9066771,13.6882508 L34.9066771,14.9287763 C34.9066771,16.5882532 36.3689264,17.942218 38.0027291,17.942218 C39.6918718,17.942218 41.0911187,16.6312226 41.0877131,14.9261982 L41.0766452,9.32728984 C41.0749424,8.31622066 40.6965029,7.4465207 40.0507294,6.8505356 C38.915411,5.80294246 37.3441849,5.86352927 35.9921897,6.36498176 L35.9921897,6.36498176 Z" id="Fill-65"></path>
                </g>
            </g>
        </g>
    </g>
</svg>