<?xml version="1.0" encoding="UTF-8" standalone="no"?>
<svg width="134px" height="24px" viewBox="0 0 134 24" version="1.1" xmlns="http://www.w3.org/2000/svg" xmlns:xlink="http://www.w3.org/1999/xlink" xmlns:sketch="http://www.bohemiancoding.com/sketch/ns">
    <!-- Generator: Sketch 3.4 (15575) - http://www.bohemiancoding.com/sketch -->
    <title>mashable</title>
    <desc>Created with Sketch.</desc>
    <defs></defs>
    <g id="Page-1" stroke="none" stroke-width="1" fill="none" fill-rule="evenodd" sketch:type="MSPage">
        <g id="twindr" sketch:type="MSArtboardGroup" transform="translate(-858.000000, -586.000000)" fill="#FFFFFF">
            <g id="press" sketch:type="MSLayerGroup" transform="translate(787.000000, 579.000000)">
                <g id="mashable" transform="translate(71.000000, 7.000000)" sketch:type="MSShapeGroup">
                    <path d="M20.0018679,0.862558864 L20.0018679,15.6028784 L14.3732691,0.862558864 L11.8248155,0.862558864 L6.15954826,15.6028784 L6.15954826,0.862558864 L0.393442902,0.862558864 L0.393442902,23.1535785 L8.40548754,23.1535785 L13.0990423,10.8539816 L17.7559287,23.1535785 L25.7679733,23.1535785 L25.7679733,0.862558864 L20.0018679,0.862558864 L20.0018679,0.862558864 Z" id="path13736" transform="translate(13.080708, 12.008069) scale(1, -1) translate(-13.080708, -12.008069) "></path>
                    <path d="M37.2259245,7.01473506 L37.2259245,8.6190303 C36.2221271,7.41695153 34.2741186,6.61251859 32.1977706,6.61251859 C29.7180703,6.61251859 26.6333414,8.31736795 26.6333414,11.9281749 C26.6333414,15.8360736 29.7180703,17.1432771 32.1977706,17.1432771 C34.3428718,17.1432771 36.254212,16.4393983 37.2259245,15.2373195 L37.2259245,16.8416147 C37.2259245,18.2448017 36.020451,19.2137778 33.9395195,19.2137778 C32.3306936,19.2137778 30.7218677,18.5784586 29.415556,17.4769339 L27.5042159,21.0511757 C29.5851474,22.8245847 32.367362,23.5558874 34.8470623,23.5558874 C38.7339123,23.5558874 42.3870013,22.1207059 42.3870013,17.1067119 L42.3870013,7.01473506 L37.2259245,7.01473506 L37.2259245,7.01473506 Z M37.2259245,11.1603071 L37.2259245,12.5954886 C36.6896492,13.3633564 35.4841757,13.7335784 34.3428718,13.7335784 C33.0044753,13.7335784 31.7623334,13.1302537 31.7623334,11.8596153 C31.7623334,10.5889769 33.0044753,9.99022281 34.3428718,9.99022281 C35.4841757,9.99022281 36.6896492,10.3878686 37.2259245,11.1603071 L37.2259245,11.1603071 Z" id="path13748" transform="translate(34.510171, 15.084203) scale(1, -1) translate(-34.510171, -15.084203) "></path>
                    <path d="M42.7536853,9.11448786 L44.8987865,12.7892838 C46.10426,11.7197536 48.6847984,10.618229 50.5961386,10.618229 C52.1362112,10.618229 52.7733246,11.0524399 52.7733246,11.7563188 C52.7733246,13.7582598 43.3587138,11.6877591 43.3587138,18.2374887 C43.3587138,21.0804278 45.8384141,23.553145 50.2936243,23.553145 C53.043754,23.553145 55.3217782,22.6847231 57.063527,21.4140847 L55.0880172,17.7712833 C54.1163046,18.7082648 52.2737177,19.5401216 50.3302927,19.5401216 C49.1202356,19.5401216 48.3181144,19.0739161 48.3181144,18.4385969 C48.3181144,16.6697586 57.7006404,18.5071566 57.7006404,11.8888674 C57.7006404,8.81282551 54.9871791,6.6097762 50.3623776,6.6097762 C47.44724,6.6097762 44.4633493,7.57875225 42.7536853,9.11448786" id="path13752" transform="translate(50.227163, 15.081461) scale(1, -1) translate(-50.227163, -15.081461) "></path>
                    <path d="M69.329564,0.862651323 L69.329564,10.25532 C69.329564,12.2252666 68.2890983,12.8605858 66.6481875,12.8605858 C65.1401997,12.8605858 64.1364024,12.0241584 63.5313738,11.2882851 L63.5313738,0.862651323 L58.370297,0.862651323 L58.370297,23.1536709 L63.5313738,23.1536709 L63.5313738,15.0316406 C64.5030863,16.1697304 66.4144265,17.4038037 69.1278878,17.4038037 C72.8130617,17.4038037 74.4906408,15.333303 74.4906408,12.3578152 L74.4906408,0.862651323 L69.329564,0.862651323 L69.329564,0.862651323 Z" id="path13756" transform="translate(66.430469, 12.008161) scale(1, -1) translate(-66.430469, -12.008161) "></path>
                    <path d="M85.8175085,7.01473506 L85.8175085,8.6190303 C84.8137112,7.41695153 82.8657026,6.61251859 80.7893546,6.61251859 C78.3096543,6.61251859 75.2249255,8.31736795 75.2249255,11.9281749 C75.2249255,15.8360736 78.3096543,17.1432771 80.7893546,17.1432771 C82.9344558,17.1432771 84.845796,16.4393983 85.8175085,15.2373195 L85.8175085,16.8416147 C85.8175085,18.2448017 84.612035,19.2137778 82.5311035,19.2137778 C80.9222776,19.2137778 79.3134517,18.5784586 78.0071401,17.4769339 L76.0957999,21.0511757 C78.1767314,22.8245847 80.958946,23.5558874 83.4386463,23.5558874 C87.3254963,23.5558874 90.9785853,22.1207059 90.9785853,17.1067119 L90.9785853,7.01473506 L85.8175085,7.01473506 L85.8175085,7.01473506 Z M85.8175085,11.1603071 L85.8175085,12.5954886 C85.2812332,13.3633564 84.0757597,13.7335784 82.9344558,13.7335784 C81.5960594,13.7335784 80.3539174,13.1302537 80.3539174,11.8596153 C80.3539174,10.5889769 81.5960594,9.99022281 82.9344558,9.99022281 C84.0757597,9.99022281 85.2812332,10.3878686 85.8175085,11.1603071 L85.8175085,11.1603071 Z" id="path13760" transform="translate(83.101755, 15.084203) scale(1, -1) translate(-83.101755, -15.084203) "></path>
                    <path d="M92.752419,1.26486779 L92.752419,23.5558874 L97.9134958,23.5558874 L97.9134958,15.5024167 C99.1877226,17.1067119 100.929471,17.8060201 102.707889,17.8060201 C106.76433,17.8060201 109.844475,14.6339948 109.844475,9.35033297 C109.844475,3.87013357 106.695577,0.862651323 102.707889,0.862651323 C100.897387,0.862651323 99.2564758,1.59852464 97.9134958,3.13426025 L97.9134958,1.26486779 L92.752419,1.26486779 L92.752419,1.26486779 Z M100.998225,5.41043982 C103.042488,5.41043982 104.58256,6.91418094 104.58256,9.35033297 C104.58256,11.7590612 103.042488,13.2628023 100.998225,13.2628023 C99.8935892,13.2628023 98.5506092,12.6594776 97.9134958,11.7910556 L97.9134958,6.84562132 C98.5506092,5.97719939 99.8935892,5.41043982 100.998225,5.41043982 L100.998225,5.41043982 Z" id="path13764" transform="translate(101.298447, 12.209269) scale(1, -1) translate(-101.298447, -12.209269) "></path>
                    <path d="M110.581967,0.863107299 L115.743048,0.863107299 L115.743048,23.1541269 L110.581967,23.1541269 L110.581967,0.863107299 L110.581967,0.863107299 Z" id="path13766"></path>
                    <path d="M116.478253,15.0977316 C116.478253,19.7780687 119.99842,23.5534187 125.058658,23.5534187 C129.853051,23.5534187 133.336549,20.0431659 133.336549,14.5629665 L133.336549,13.3928822 L121.808922,13.3928822 C122.175606,11.9577007 123.518586,10.7510513 125.860779,10.7510513 C127.002083,10.7510513 128.881339,11.2538219 129.816383,12.1222438 L132.062322,8.74911022 C130.453496,7.30935809 127.77212,6.61004991 125.292419,6.61004991 C120.300934,6.61004991 116.478253,9.85063487 116.478253,15.0977316 M125.058658,19.4078467 C122.812719,19.4078467 121.941845,18.0732193 121.740168,16.903135 L128.409233,16.903135 C128.27631,18.0412248 127.43752,19.4078467 125.058658,19.4078467" id="path13778" transform="translate(124.907401, 15.081734) scale(1, -1) translate(-124.907401, -15.081734) "></path>
                </g>
            </g>
        </g>
    </g>
</svg>