<?xml version="1.0" encoding="UTF-8" standalone="no"?>
<svg width="29px" height="29px" viewBox="0 0 29 29" version="1.1" xmlns="http://www.w3.org/2000/svg" xmlns:xlink="http://www.w3.org/1999/xlink" xmlns:sketch="http://www.bohemiancoding.com/sketch/ns">
    <!-- Generator: Sketch 3.4 (15575) - http://www.bohemiancoding.com/sketch -->
    <title>producthunt</title>
    <desc>Created with Sketch.</desc>
    <defs></defs>
    <g id="Page-1" stroke="none" stroke-width="1" fill="none" fill-rule="evenodd" sketch:type="MSPage">
        <g id="twindr" sketch:type="MSArtboardGroup" transform="translate(-780.000000, -580.000000)" fill="#FFFFFF">
            <g id="press" sketch:type="MSLayerGroup" transform="translate(780.000000, 580.000000)">
                <g id="producthunt" sketch:type="MSShapeGroup">
                    <path d="M28.7493976,14.5 C28.7493976,22.5081083 22.3136054,29 14.3746988,29 C6.43579223,29 0,22.5081083 0,14.5 C0,6.49189167 6.43579223,0 14.3746988,0 C22.3136054,0 28.7493976,6.49189167 28.7493976,14.5 Z M16.2913253,7.25001813 L9.34355422,7.25001813 L9.34355422,21.7500181 L12.218494,21.7500181 L12.218494,17.4000181 L16.2913253,17.4000181 C19.0699546,17.4000181 21.3224699,15.1278681 21.3224699,12.3250181 C21.3224699,9.52216813 19.0699546,7.25001813 16.2913253,7.25001813 Z" id="Fill-1"></path>
                    <path d="M16.2913253,14.4999577 L16.2913253,14.5000181 L12.218494,14.5000181 L12.218494,10.1500181 L16.2913253,10.1500181 L16.2913253,10.1500181 C17.4821493,10.1500181 18.4474702,11.1237535 18.4474702,12.3249577 C18.4474702,13.5261619 17.4821493,14.4999577 16.2913253,14.4999577" id="Path"></path>
                </g>
            </g>
        </g>
    </g>
</svg>
